<?xml version="1.0" encoding="UTF-8" standalone="no"?>
<!-- Created with Inkscape (http://www.inkscape.org/) -->

<svg
   width="512"
   height="512"
   viewBox="0 0 135.46666 135.46666"
   version="1.1"
   id="svg1"
   xml:space="preserve"
   sodipodi:docname="app_logo_dark.svg"
   inkscape:version="1.4.2 (ebf0e940, 2025-05-08)"
   xmlns:inkscape="http://www.inkscape.org/namespaces/inkscape"
   xmlns:sodipodi="http://sodipodi.sourceforge.net/DTD/sodipodi-0.dtd"
   xmlns="http://www.w3.org/2000/svg"
   xmlns:svg="http://www.w3.org/2000/svg"><sodipodi:namedview
     id="namedview1"
     pagecolor="#ffffff"
     bordercolor="#000000"
     borderopacity="0.25"
     inkscape:showpageshadow="2"
     inkscape:pageopacity="0.0"
     inkscape:pagecheckerboard="0"
     inkscape:deskcolor="#d1d1d1"
     inkscape:zoom="1"
     inkscape:cx="256"
     inkscape:cy="247.5"
     inkscape:window-width="976"
     inkscape:window-height="1376"
     inkscape:window-x="3947"
     inkscape:window-y="31"
     inkscape:window-maximized="0"
     inkscape:current-layer="layer1" /><defs
     id="defs1" /><g
     id="layer1"
     transform="translate(-355.90808,-711.50665)"><path
       id="path119"
       style="baseline-shift:baseline;display:inline;overflow:visible;vector-effect:none;fill:#ffb1c3;fill-opacity:1;fill-rule:evenodd;stroke:none;stroke-width:0.601364;stroke-linecap:round;stroke-linejoin:round;stroke-opacity:1;paint-order:stroke fill markers;enable-background:accumulate;stop-color:#000000"
       d="m 401.03471,757.28279 c -2.03107,4.06211 -3.80417,7.20941 -3.80417,11.86574 0,4.65641 1.773,7.80532 3.80417,11.86622 2.03125,4.06098 4.61765,8.4402 7.18653,12.54865 1.47779,2.36336 2.95274,4.63757 4.30429,6.67812 -4.63235,-2.16828 -9.99192,-4.81156 -14.58727,-7.43183 -4.93403,-2.81343 -8.98707,-5.60008 -10.31281,-7.74462 -1.75553,-2.83973 -2.38217,-10.46304 -2.51595,-18.39392 -0.0359,-2.12892 -0.0365,-4.2802 -0.0136,-6.36694 0.0965,-8.80928 0.60744,-16.47087 0.60744,-16.47087 0,0 9.00355,3.78388 18.06462,8.34223 -1.22173,2.11741 -1.71757,3.07603 -2.73318,5.10722 z m 42.47866,-5.10273 c 9.06184,-4.55886 18.06606,-8.34625 18.06606,-8.34625 0,0 0.51051,7.66119 0.60703,16.47048 0.0229,2.08666 0.0227,4.23802 -0.0132,6.36694 -0.13377,7.93088 -0.76083,15.55411 -2.51636,18.39392 -1.32573,2.14454 -5.37843,4.93119 -10.3124,7.74462 -4.59588,2.62059 -9.95621,5.26419 -14.58892,7.43271 3.74459,-5.65428 8.39837,-13.04433 11.49123,-19.22765 2.03117,-4.0609 3.80374,-7.20981 3.80374,-11.86622 0,-4.65633 -1.77273,-7.80363 -3.80374,-11.86574 -1.28944,-2.57888 -1.08313,-2.32184 -2.73338,-5.10281 m -3.24167,-5.49186 c -5.41414,-8.98202 -10.75108,-16.33436 -11.45219,-17.32025 -1.19503,-1.67196 -3.12384,-2.66406 -5.17899,-2.66386 v -6e-5 c -2.05514,-2e-4 -3.98395,0.9919 -5.17899,2.66386 0,0 -5.10267,7.13922 -10.24029,15.35962 -0.98027,1.56847 -0.25755,0.34235 -1.21115,1.95728 -8.90912,-4.50334 -17.78434,-8.27312 -18.84721,-8.72116 -0.71086,-0.29767 -1.45939,-0.45961 -2.20933,-0.48893 -1.24992,-0.0489 -2.50409,0.27086 -3.59657,0.94638 -1.74819,1.08048 -2.86715,2.93868 -3.00447,4.98921 0,0 -0.52439,7.83248 -0.62153,16.88278 -9.0503,0.0971 -16.88237,0.62109 -16.88237,0.62109 -2.05054,0.13735 -3.90873,1.25629 -4.98921,3.0045 -1.08083,1.74797 -1.25121,3.91032 -0.45744,5.80582 0.63599,1.50878 7.94159,18.75698 14.58063,29.50193 1.71376,2.77358 3.09639,5.18618 5.20551,7.2325 -4.6727,5.06101 -8.50085,9.71694 -8.50085,9.71694 -2.08005,2.52852 -1.05518,6.35256 2.01044,7.50221 1.74818,0.65116 14.54227,5.35464 23.59652,7.20893 3.33619,0.68323 5.96122,1.35595 9.33452,0.45206 3.37329,-0.90389 5.30924,-2.79899 7.85777,-5.05884 4.48071,-3.97326 9.71384,-9.75581 13.15486,-13.71127 3.44102,3.95546 8.67372,9.73801 13.15443,13.71127 2.54853,2.25985 4.48489,4.15495 7.85819,5.05884 3.3733,0.90389 5.99833,0.23117 9.33452,-0.45206 9.05425,-1.85429 21.84834,-6.55777 23.59653,-7.20893 3.06561,-1.14965 4.09048,-4.97369 2.01043,-7.50221 0,0 -3.82766,-4.65545 -8.50001,-9.71613 2.10869,-2.04617 3.49111,-4.45845 5.20467,-7.2317 6.63902,-10.74496 13.94465,-27.99355 14.58063,-29.50226 0.79377,-1.89558 0.62338,-4.05793 -0.45744,-5.8059 -1.08049,-1.74821 -2.93868,-2.86675 -4.98922,-3.00402 0,0 -7.83245,-0.52439 -16.88277,-0.62157 0,-4.8e-4 1e-5,-8e-4 0,0 -0.0971,-9.05026 -0.62152,-16.88232 -0.62152,-16.88232 -0.13732,-2.05054 -1.25628,-3.90873 -3.00447,-4.98921 -1.09248,-0.67553 -2.34667,-0.99526 -3.59658,-0.94638 -0.74995,0.0293 -1.49845,0.19126 -2.20932,0.48893 -1.06294,0.44807 -9.93818,4.22086 -18.84773,8.72451 m -16.63118,-13.62097 c 0,0 20.04553,28.06358 20.04553,36.08179 0,8.0182 -20.04553,36.06724 -20.04553,36.06724 0,0 -20.04553,-28.04904 -20.04553,-36.06724 0,-8.01821 20.04553,-36.08179 20.04553,-36.08179 z m 44.8992,33.59029 c 8.80933,0.0965 16.47091,0.60746 16.47091,0.60746 0,0 -11.2833,26.92272 -18.39931,34.51259 -0.61861,0.65982 -1.20557,1.17354 -1.75105,1.51071 -0.62142,0.38415 -1.4719,0.71426 -2.50434,0.9969 -5.39716,1.47736 -15.76958,1.65817 -24.42068,1.4958 1.59038,-0.74762 3.25831,-1.54751 4.94903,-2.38165 3.63148,-1.79159 7.37292,-3.738 10.75907,-5.72179 0.66567,-0.38992 1.31776,-0.78113 1.95242,-1.17306 1.02845,-0.63528 2.00751,-1.22518 2.93652,-1.82358 2.56047,-1.64927 4.74186,-3.36324 6.53847,-6.26951 2.44847,-3.96068 2.59562,-7.57015 3.00405,-12.0933 0.275,-3.04603 0.41193,-6.34841 0.46491,-9.66057 z m -89.79714,0 c 0.053,3.31192 0.19034,6.61398 0.46531,9.65977 0.40843,4.52323 0.55517,8.13262 3.00364,12.09329 1.79664,2.90628 3.97837,4.61985 6.53889,6.26912 0.92898,0.59831 1.90767,1.18829 2.9361,1.82358 0.63469,0.39201 1.28673,0.78345 1.95242,1.17346 3.38613,1.98386 7.12761,3.93028 10.75907,5.72179 1.69093,0.83421 3.35931,1.63395 4.94985,2.38165 h 4.2e-4 c -4.2e-4,0 -19.02426,-0.0184 -24.4215,-1.4958 -1.03245,-0.28264 -1.88251,-0.61283 -2.50393,-0.99698 -0.54547,-0.33717 -1.13286,-0.85089 -1.75147,-1.51071 -7.11602,-7.58987 -18.3993,-34.51259 -18.3993,-34.51259 0,0 7.66125,-0.51092 16.4705,-0.60746 z m 1.3396,42.62108 c 3.57658,1.89767 6.94991,2.05314 11.08639,2.42599 8.46977,0.76341 19.73453,0.4774 26.71868,0.17407 v 4e-4 c -5.31777,5.95913 -12.91921,13.89119 -16.49412,14.84913 -5.80873,1.55641 -30.01981,-7.52092 -30.01981,-7.52092 0,0 3.97673,-4.83286 8.70886,-9.92867 z m 87.1196,8e-4 c 4.73171,5.09549 8.7076,9.92787 8.7076,9.92787 0,0 -24.21107,9.07733 -30.0198,7.52092 -3.57463,-0.95786 -11.17517,-8.88896 -16.49288,-14.84784 6.98425,0.30324 18.2478,0.58925 26.71702,-0.17408 4.1365,-0.37285 7.51021,-0.52832 11.08681,-2.42599 3.1e-4,-1.6e-4 8e-4,-7.2e-4 0.002,0 z" /></g></svg>
