<?xml version="1.0" encoding="UTF-8" standalone="no"?>
<!-- Created with Inkscape (http://www.inkscape.org/) -->

<svg
   width="512"
   height="512"
   viewBox="0 0 135.46667 135.46666"
   version="1.1"
   id="svg1"
   xml:space="preserve"
   inkscape:version="1.4.2 (ebf0e940, 2025-05-08)"
   sodipodi:docname="icon_draw.svg"
   xmlns:inkscape="http://www.inkscape.org/namespaces/inkscape"
   xmlns:sodipodi="http://sodipodi.sourceforge.net/DTD/sodipodi-0.dtd"
   xmlns="http://www.w3.org/2000/svg"
   xmlns:svg="http://www.w3.org/2000/svg"><sodipodi:namedview
     id="namedview1"
     pagecolor="#ffffff"
     bordercolor="#000000"
     borderopacity="0.25"
     inkscape:showpageshadow="2"
     inkscape:pageopacity="0.0"
     inkscape:pagecheckerboard="0"
     inkscape:deskcolor="#d1d1d1"
     inkscape:document-units="px"
     showguides="true"
     showgrid="false"
     inkscape:zoom="0.63559753"
     inkscape:cx="409.06389"
     inkscape:cy="400.41062"
     inkscape:window-width="1744"
     inkscape:window-height="1376"
     inkscape:window-x="1861"
     inkscape:window-y="31"
     inkscape:window-maximized="0"
     inkscape:current-layer="layer1"><inkscape:grid
       id="grid2"
       units="mm"
       originx="-370.59366"
       originy="-151.11263"
       spacingx="0.99999998"
       spacingy="1"
       empcolor="#0099e5"
       empopacity="0.30196078"
       color="#0099e5"
       opacity="0.14901961"
       empspacing="5"
       enabled="true"
       visible="false" /></sodipodi:namedview><defs
     id="defs1" /><g
     inkscape:label="Layer 1"
     inkscape:groupmode="layer"
     id="layer1"
     transform="translate(-370.59366,-151.1126)"><g
       id="g52"><rect
         style="opacity:0.416999;fill:#0000ff;fill-opacity:1;fill-rule:evenodd;stroke-width:4.10181;stroke-linecap:round;stroke-linejoin:round;paint-order:stroke markers fill"
         id="rect14"
         width="132.29167"
         height="132.29167"
         x="296.14117"
         y="-188.64938"
         ry="0" /><rect
         style="opacity:0.416999;fill:#ff0000;fill-opacity:1;fill-rule:evenodd;stroke-width:6.56291;stroke-linecap:round;stroke-linejoin:round;paint-order:stroke markers fill"
         id="rect16"
         width="211.66667"
         height="211.66667"
         x="428.43283"
         y="-268.02438"
         ry="0" /><rect
         style="opacity:0.416999;fill:#ff0000;fill-opacity:1;fill-rule:evenodd;stroke-width:6.56291;stroke-linecap:round;stroke-linejoin:round;paint-order:stroke markers fill"
         id="rect18"
         width="211.66667"
         height="211.66667"
         x="428.43283"
         y="-268.02438"
         ry="105.83334" /><rect
         style="opacity:0.416999;fill:#ffff00;fill-opacity:1;fill-rule:evenodd;stroke-width:2.46109;stroke-linecap:round;stroke-linejoin:round;paint-order:stroke markers fill"
         id="rect20"
         width="79.375"
         height="79.375"
         x="296.14117"
         y="-268.02438"
         ry="0" /><rect
         style="opacity:0.416999;fill:#0000ff;fill-opacity:1;fill-rule:evenodd;stroke-width:4.10181;stroke-linecap:round;stroke-linejoin:round;paint-order:stroke markers fill"
         id="rect21"
         width="132.29167"
         height="132.29167"
         x="296.14117"
         y="-188.64938"
         ry="66.145836" /><rect
         style="opacity:0.416999;fill:#ffff00;fill-opacity:1;fill-rule:evenodd;stroke-width:2.46109;stroke-linecap:round;stroke-linejoin:round;paint-order:stroke markers fill"
         id="rect22"
         width="79.375"
         height="79.375"
         x="296.14117"
         y="-268.02438"
         ry="39.6875" /><rect
         style="opacity:0.416999;fill:#66ff00;fill-opacity:1;fill-rule:evenodd;stroke-width:1.64073;stroke-linecap:round;stroke-linejoin:round;paint-order:stroke markers fill"
         id="rect23"
         width="52.916668"
         height="52.916668"
         x="375.51617"
         y="-268.02438"
         ry="0" /><rect
         style="opacity:0.416999;fill:#66ff00;fill-opacity:1;fill-rule:evenodd;stroke-width:1.64073;stroke-linecap:round;stroke-linejoin:round;paint-order:stroke markers fill"
         id="rect24"
         width="52.916668"
         height="52.916668"
         x="375.51617"
         y="-268.02438"
         ry="26.458334" /></g><g
       id="g53"
       transform="translate(-429.59576,121.55229)"><path
         id="path36"
         style="opacity:0.416999;fill:#0000ff;fill-rule:evenodd;stroke-width:4.10181;stroke-linecap:round;stroke-linejoin:round;paint-order:stroke markers fill"
         d="m 743.8584,-133.06213 c -15.3368,11.48395 -25.3701,29.52022 -26.2805,50.006777 -0.044,0.99935 -0.1778,1.97415 -0.1778,2.98483 0,1.01034 0.1334,1.98479 0.1778,2.9838 1.4753,13.24098 12.6331,23.474535 26.2805,23.474535 13.6462,0 24.8036,-10.231715 26.2806,-23.470915 0.044,-1.0002 0.1778,-1.97586 0.1778,-2.98742 0,-1.01189 -0.1333,-1.9879 -0.1778,-2.98845 -0.9115,-20.485047 -10.9446,-38.519887 -26.2806,-50.003157 z" /><rect
         style="opacity:0.416999;fill:#ffff00;fill-opacity:1;fill-rule:evenodd;stroke-width:2.46109;stroke-linecap:round;stroke-linejoin:round;paint-order:stroke markers fill"
         id="rect28"
         width="79.375"
         height="79.375"
         x="1004.2952"
         y="-126.36426"
         ry="39.6875" /><path
         id="path28"
         style="opacity:0.416999;fill:#ffff00;fill-opacity:1;fill-rule:evenodd;stroke-width:2.46109;stroke-linecap:round;stroke-linejoin:round;paint-order:stroke markers fill"
         d="m 935.12182,-130.78293 c -15.444,5.42515 -26.4583,20.10185 -26.4583,37.445765 0,17.34391 11.0143,32.02061 26.4583,37.44578 15.4441,-5.42517 26.4584,-20.10186 26.4584,-37.44578 0,-17.343915 -11.0143,-32.020605 -26.4584,-37.445765 z" /><path
         id="path39"
         style="opacity:0.416999;fill:#0000ff;fill-rule:evenodd;stroke-width:4.10181;stroke-linecap:round;stroke-linejoin:round;paint-order:stroke markers fill"
         d="m 839.49011,-133.06213 c -15.3368,11.48395 -25.3701,29.52022 -26.2805,50.006777 -0.044,0.99935 -0.1778,1.97415 -0.1778,2.98483 0,1.01034 0.1334,1.98479 0.1778,2.9838 1.4753,13.240976 12.6331,23.474536 26.2805,23.474536 13.6462,0 24.8036,-10.23172 26.2806,-23.470916 0.044,-1.0002 0.1778,-1.97586 0.1778,-2.98742 0,-1.01189 -0.1333,-1.9879 -0.1778,-2.98845 -0.9115,-20.485047 -10.9446,-38.519887 -26.2806,-50.003157 z" /></g><g
       id="g45"
       transform="matrix(0.80551786,0,0,0.80551786,345.69245,-87.30888)"><path
         id="path44"
         style="opacity:1;fill:#8add1a;fill-opacity:1;fill-rule:evenodd;stroke-width:2.46109;stroke-linecap:round;stroke-linejoin:round;paint-order:stroke markers fill"
         d="m 113.94166,419.40577 c 4.0585,15.85795 17.7194,28.10959 34.9973,29.62122 17.2779,1.51164 32.8588,-8.18159 39.6093,-23.09409 -4.0585,-15.85806 -17.7194,-28.10961 -34.9973,-29.62123 -17.2779,-1.51162 -32.8587,8.18164 -39.6093,23.0941 z"
         inkscape:transform-center-x="-37.303268"
         inkscape:transform-center-y="3.2635918" /><path
         id="rect26"
         style="opacity:1;fill:#bce354;fill-opacity:1;fill-rule:evenodd;stroke-width:2.46109;stroke-linecap:round;stroke-linejoin:round;paint-order:stroke markers fill"
         d="m 116.05841,419.40578 c -6.7506,-14.91239 -22.331408,-24.60566 -39.609278,-23.09403 -17.27797,1.51163 -30.93891,13.76314 -34.99735,29.62127 6.75051,14.91244 22.33143,24.60568 39.60924,23.09403 17.27798,-1.51162 30.938788,-13.76316 34.997388,-29.62127 z"
         inkscape:transform-center-x="37.303242"
         inkscape:transform-center-y="3.2636317" /><path
         id="path43"
         style="opacity:1;fill:#ff9ba2;fill-opacity:1;fill-rule:evenodd;stroke-width:4.10181;stroke-linecap:round;stroke-linejoin:round;paint-order:stroke markers fill"
         d="m 115,419.40577 c 10.2514,-17.28257 12.4808,-39.00738 4.1652,-59.08288 -8.3155,-20.07569 -25.2536,-33.861 -44.72316,-38.83274 -10.25161,17.28279 -12.48097,39.00743 -4.16551,59.08306 C 78.59212,400.6487 95.5304,414.43395 115,419.40577 Z"
         inkscape:transform-center-x="20.279079"
         inkscape:transform-center-y="-48.957812" /><path
         id="path42"
         style="opacity:1;fill:#ff7d86;fill-opacity:1;fill-rule:evenodd;stroke-width:4.10181;stroke-linecap:round;stroke-linejoin:round;paint-order:stroke markers fill"
         d="m 30.91788,354.88728 c -0.23668,20.09309 8.69505,40.0218 25.93422,53.25001 C 74.09144,421.36547 95.6528,424.83484 115,419.40577 115.2367,399.31269 106.3051,379.38383 89.0658,366.1557 71.82651,352.9275 50.26505,349.4582 30.91788,354.88728 Z"
         inkscape:transform-center-x="42.041059"
         inkscape:transform-center-y="-32.259254" /><path
         id="path29"
         style="opacity:1;fill:#fff1f1;fill-opacity:1;fill-rule:evenodd;stroke-width:4.10181;stroke-linecap:round;stroke-linejoin:round;paint-order:stroke markers fill"
         d="m 199.0821,354.8873 c -19.3472,-5.42908 -40.9085,-1.95968 -58.1478,11.26846 -17.2393,13.22813 -26.171,33.15692 -25.9343,53.25001 19.3472,5.42908 40.9086,1.95978 58.1479,-11.26836 17.2393,-13.22823 26.1709,-33.15703 25.9342,-53.25011 z"
         inkscape:transform-center-x="-42.04105"
         inkscape:transform-center-y="-32.259224" /><path
         id="path40"
         style="opacity:1;fill:#ffdddf;fill-opacity:1;fill-rule:evenodd;stroke-width:4.10181;stroke-linecap:round;stroke-linejoin:round;paint-order:stroke markers fill"
         d="m 115,419.40577 c 19.4696,-4.97182 36.4076,-18.75712 44.7233,-38.83263 8.3155,-20.07557 6.0862,-41.80024 -4.1653,-59.08308 -19.4697,4.97185 -36.4078,18.75715 -44.7235,38.83273 -8.3154,20.07552 -6.0861,41.80021 4.1655,59.08298 z"
         inkscape:transform-center-x="-20.278944"
         inkscape:transform-center-y="-48.957853" /><path
         id="path41"
         style="opacity:1;fill:#ffbdc2;fill-opacity:1;fill-rule:evenodd;stroke-width:4.79215;stroke-linecap:round;stroke-linejoin:round;paint-order:stroke markers fill"
         d="m 115,310.96218 c -15.3368,15.67479 -25.3701,40.29303 -26.2805,68.25574 -0.044,1.36404 -0.1778,2.69458 -0.1778,4.07408 0,1.37905 0.1334,2.7091 0.1778,4.07268 1.4753,18.073 12.6331,32.04109 26.2805,32.04109 13.6462,0 24.8036,-13.96558 26.2806,-32.03615 0.044,-1.3652 0.1778,-2.69691 0.1778,-4.07762 0,-1.38116 -0.1333,-2.71334 -0.1778,-4.07902 C 140.3691,351.25233 130.336,326.63604 115,310.96218 Z" /></g><g
       id="g51"
       transform="translate(-4.1627496,165.67743)" /><g
       id="g59"
       transform="translate(-52.450641,-477.88364)"><path
         id="path53"
         style="opacity:1;fill:#8add1a;fill-opacity:1;fill-rule:evenodd;stroke-width:2.46109;stroke-linecap:round;stroke-linejoin:round;paint-order:stroke markers fill"
         d="m 113.94166,419.40577 c 4.0585,15.85795 17.7194,28.10959 34.9973,29.62122 17.2779,1.51164 32.8588,-8.18159 39.6093,-23.09409 -4.0585,-15.85806 -17.7194,-28.10961 -34.9973,-29.62123 -17.2779,-1.51162 -32.8587,8.18164 -39.6093,23.0941 z"
         inkscape:transform-center-x="-37.303268"
         inkscape:transform-center-y="3.2635918" /><path
         id="path54"
         style="opacity:1;fill:#bce354;fill-opacity:1;fill-rule:evenodd;stroke-width:2.46109;stroke-linecap:round;stroke-linejoin:round;paint-order:stroke markers fill"
         d="m 116.05841,419.40578 c -6.7506,-14.91239 -22.331408,-24.60566 -39.609278,-23.09403 -17.27797,1.51163 -30.93891,13.76314 -34.99735,29.62127 6.75051,14.91244 22.33143,24.60568 39.60924,23.09403 17.27798,-1.51162 30.938788,-13.76316 34.997388,-29.62127 z"
         inkscape:transform-center-x="37.303242"
         inkscape:transform-center-y="3.2636317" /><path
         id="path55"
         style="opacity:1;fill:#ff9ba2;fill-opacity:1;fill-rule:evenodd;stroke-width:4.10181;stroke-linecap:round;stroke-linejoin:round;paint-order:stroke markers fill"
         d="m 115,419.40577 c 10.2514,-17.28257 12.4808,-39.00738 4.1652,-59.08288 -8.3155,-20.07569 -25.2536,-33.861 -44.72316,-38.83274 -10.25161,17.28279 -12.48097,39.00743 -4.16551,59.08306 C 78.59212,400.6487 95.5304,414.43395 115,419.40577 Z"
         inkscape:transform-center-x="20.279079"
         inkscape:transform-center-y="-48.957812" /><path
         id="path56"
         style="opacity:1;fill:#ff7d86;fill-opacity:1;fill-rule:evenodd;stroke-width:4.10181;stroke-linecap:round;stroke-linejoin:round;paint-order:stroke markers fill"
         d="m 30.91788,354.88728 c -0.23668,20.09309 8.69505,40.0218 25.93422,53.25001 C 74.09144,421.36547 95.6528,424.83484 115,419.40577 115.2367,399.31269 106.3051,379.38383 89.0658,366.1557 71.82651,352.9275 50.26505,349.4582 30.91788,354.88728 Z"
         inkscape:transform-center-x="42.041059"
         inkscape:transform-center-y="-32.259254" /><path
         id="path57"
         style="opacity:1;fill:#fff1f1;fill-opacity:1;fill-rule:evenodd;stroke-width:4.10181;stroke-linecap:round;stroke-linejoin:round;paint-order:stroke markers fill"
         d="m 199.0821,354.8873 c -19.3472,-5.42908 -40.9085,-1.95968 -58.1478,11.26846 -17.2393,13.22813 -26.171,33.15692 -25.9343,53.25001 19.3472,5.42908 40.9086,1.95978 58.1479,-11.26836 17.2393,-13.22823 26.1709,-33.15703 25.9342,-53.25011 z"
         inkscape:transform-center-x="-42.04105"
         inkscape:transform-center-y="-32.259224" /><path
         id="path58"
         style="opacity:1;fill:#ffdddf;fill-opacity:1;fill-rule:evenodd;stroke-width:4.10181;stroke-linecap:round;stroke-linejoin:round;paint-order:stroke markers fill"
         d="m 115,419.40577 c 19.4696,-4.97182 36.4076,-18.75712 44.7233,-38.83263 8.3155,-20.07557 6.0862,-41.80024 -4.1653,-59.08308 -19.4697,4.97185 -36.4078,18.75715 -44.7235,38.83273 -8.3154,20.07552 -6.0861,41.80021 4.1655,59.08298 z"
         inkscape:transform-center-x="-20.278944"
         inkscape:transform-center-y="-48.957853" /><path
         id="path59"
         style="opacity:1;fill:#ffbdc2;fill-opacity:1;fill-rule:evenodd;stroke-width:4.79215;stroke-linecap:round;stroke-linejoin:round;paint-order:stroke markers fill"
         d="m 115,310.96218 c -15.3368,15.67479 -25.3701,40.29303 -26.2805,68.25574 -0.044,1.36404 -0.1778,2.69458 -0.1778,4.07408 0,1.37905 0.1334,2.7091 0.1778,4.07268 1.4753,18.073 12.6331,32.04109 26.2805,32.04109 13.6462,0 24.8036,-13.96558 26.2806,-32.03615 0.044,-1.3652 0.1778,-2.69691 0.1778,-4.07762 0,-1.38116 -0.1333,-2.71334 -0.1778,-4.07902 C 140.3691,351.25233 130.336,326.63604 115,310.96218 Z" /></g></g></svg>
